<?xml version="1.0" encoding="UTF-8" standalone="no"?>
<!-- Created with Inkscape (http://www.inkscape.org/) -->

<svg
   width="192"
   height="52.152"
   viewBox="0 0 192 52.152001"
   version="1.1"
   id="svg773"
   inkscape:version="1.2.2 (b0a8486541, 2022-12-01, custom)"
   sodipodi:docname="MTR logo with letters.svg"
   xmlns:inkscape="http://www.inkscape.org/namespaces/inkscape"
   xmlns:sodipodi="http://sodipodi.sourceforge.net/DTD/sodipodi-0.dtd"
   xmlns="http://www.w3.org/2000/svg"
   xmlns:svg="http://www.w3.org/2000/svg">
  <sodipodi:namedview
     id="namedview775"
     pagecolor="#ffffff"
     bordercolor="#000000"
     borderopacity="0.25"
     inkscape:showpageshadow="2"
     inkscape:pageopacity="0.0"
     inkscape:pagecheckerboard="true"
     inkscape:deskcolor="#d1d1d1"
     inkscape:document-units="px"
     showgrid="false"
     inkscape:zoom="2.3786088"
     inkscape:cx="35.31476"
     inkscape:cy="30.269795"
     inkscape:window-width="1605"
     inkscape:window-height="986"
     inkscape:window-x="0"
     inkscape:window-y="0"
     inkscape:window-maximized="1"
     inkscape:current-layer="layer1" />
  <defs
     id="defs770" />
  <g
     inkscape:label="Layer 1"
     inkscape:groupmode="layer"
     id="layer1"
     transform="translate(-231.92278,-189.17583)">
    <g
       id="g192"
       transform="matrix(1.3333333,0,0,-1.3333333,231.92278,215.26916)">
      <path
         d="m 0,0 c 0,-8.056 5.354,-14.962 12.96,-17.839 3.134,-1.097 6.618,-1.705 10.283,-1.705 3.648,0 7.11,0.608 10.234,1.698 l 0.01,-0.009 C 41.111,-14.984 46.49,-8.076 46.49,0 v 0.031 c 0,8.074 -5.379,14.988 -13.003,17.854 l -0.01,-0.005 c -3.124,1.086 -6.586,1.69 -10.234,1.69 -3.665,0 -7.149,-0.604 -10.283,-1.702 C 5.354,14.991 0,8.086 0,0.031 Z"
         style="fill:#af1d3b;fill-opacity:1;fill-rule:nonzero;stroke:none"
         id="path194" />
    </g>
    <g
       id="g196"
       transform="matrix(1.3333333,0,0,-1.3333333,260.00944,217.55556)">
      <path
         d="m 0,0 c -5.192,-0.806 -9.212,-5.149 -9.507,-10.483 l 4.181,-0.006 c 0.19,3.187 2.421,5.827 5.41,6.62 v -7.49 h 4.193 v 7.49 c 2.986,-0.793 5.219,-3.433 5.406,-6.62 l 4.19,0.006 C 13.564,-5.149 9.55,-0.806 4.363,0 v 3.46 c 5.187,0.809 9.201,5.15 9.51,10.487 H 9.683 C 9.496,10.76 7.263,8.126 4.277,7.33 v 7.49 H 0.084 V 7.33 c -2.989,0.796 -5.22,3.43 -5.41,6.617 H -9.507 C -9.212,8.61 -5.192,4.269 0,3.46 Z"
         style="fill:#ffffff;fill-opacity:1;fill-rule:nonzero;stroke:none"
         id="path198" />
    </g>
    <g
       id="g200"
       transform="matrix(1.3333333,0,0,-1.3333333,349.36877,198.97663)">
      <path
         d="m 0,0 v -3.405 h 8.775 v -21.846 h 7.877 v 21.846 c 0,0 6.035,0.017 6.172,0.017 C 26.369,-3.421 26.586,0 26.586,0 Z"
         style="fill:#001f50;fill-opacity:1;fill-rule:nonzero;stroke:none"
         id="path202" />
    </g>
    <g
       id="g204"
       transform="matrix(1.3333333,0,0,-1.3333333,339.92411,198.88143)">
      <path
         d="m 0,0 c -2.926,-0.078 -4.135,-1.485 -4.932,-2.979 l -6.401,-13.699 h -0.092 L -19.106,0 h -7.914 l 0.016,-25.291 h 4.394 v 17.869 l 8.566,-17.869 h 3.076 L -2.652,-7.48 V -25.291 H 4.143 V 0 Z"
         style="fill:#001f50;fill-opacity:1;fill-rule:nonzero;stroke:none"
         id="path206" />
    </g>
    <g
       id="g208"
       transform="matrix(1.3333333,0,0,-1.3333333,412.39744,216.64836)">
      <path
         d="m 0,0 c 3.535,0.899 5.701,3.391 5.756,6.307 0,4.282 -3.893,6.947 -11.145,6.947 h -13.107 v -25.219 h 7.684 l 0.029,21.798 h 3.682 c 4.386,0 5.455,-1.428 5.58,-3.403 C -1.37,4.784 -3.333,2.805 -5.571,2.385 L -5.54,2.354 C -6.216,2.18 -7.271,1.943 -8.559,1.82 -8.589,1.82 -8.771,1.775 -8.636,1.531 -6.331,-2.568 -1,-9.927 -1,-9.927 c 1.042,-1.017 1.476,-2.038 4.475,-2.07 l 5.169,0.032 c 0,0 -5.701,6.999 -8.644,11.965"
         style="fill:#001f50;fill-opacity:1;fill-rule:nonzero;stroke:none"
         id="path210" />
    </g>
  </g>
</svg>
